<svg width="32" height="32" viewBox="0 0 32 32" fill="none" xmlns="http://www.w3.org/2000/svg">
<path d="M15.9997 18.6667H17.333C18.7997 18.6667 19.9997 17.4667 19.9997 16V2.66669H7.99966C5.99966 2.66669 4.25301 3.77334 3.34634 5.4" stroke="#406AEC" stroke-width="2" stroke-linecap="round" stroke-linejoin="round"/>
<path d="M2.66666 22.6667C2.66666 24.88 4.45332 26.6667 6.66666 26.6667H7.99999C7.99999 25.2 9.19999 24 10.6667 24C12.1333 24 13.3333 25.2 13.3333 26.6667H18.6667C18.6667 25.2 19.8667 24 21.3333 24C22.8 24 24 25.2 24 26.6667H25.3333C27.5467 26.6667 29.3333 24.88 29.3333 22.6667V18.6667H25.3333C24.6 18.6667 24 18.0667 24 17.3334V13.3334C24 12.6 24.6 12 25.3333 12H27.0533L24.7733 8.01337C24.2933 7.1867 23.4134 6.66669 22.4534 6.66669H20V16C20 17.4667 18.8 18.6667 17.3333 18.6667H16" stroke="#406AEC" stroke-width="2" stroke-linecap="round" stroke-linejoin="round"/>
<path d="M10.6667 29.3333C12.1394 29.3333 13.3333 28.1394 13.3333 26.6667C13.3333 25.1939 12.1394 24 10.6667 24C9.19391 24 8 25.1939 8 26.6667C8 28.1394 9.19391 29.3333 10.6667 29.3333Z" stroke="#406AEC" stroke-width="2" stroke-linecap="round" stroke-linejoin="round"/>
<path d="M21.3334 29.3333C22.8061 29.3333 24 28.1394 24 26.6667C24 25.1939 22.8061 24 21.3334 24C19.8606 24 18.6667 25.1939 18.6667 26.6667C18.6667 28.1394 19.8606 29.3333 21.3334 29.3333Z" stroke="#406AEC" stroke-width="2" stroke-linecap="round" stroke-linejoin="round"/>
<path d="M29.3333 16V18.6667H25.3333C24.6 18.6667 24 18.0667 24 17.3333V13.3333C24 12.6 24.6 12 25.3333 12H27.0533L29.3333 16Z" stroke="#406AEC" stroke-width="2" stroke-linecap="round" stroke-linejoin="round"/>
<path d="M2.66666 10.6667H10.6667" stroke="#406AEC" stroke-width="2" stroke-linecap="round" stroke-linejoin="round"/>
<path d="M2.66666 14.6667H7.99999" stroke="#406AEC" stroke-width="2" stroke-linecap="round" stroke-linejoin="round"/>
<path d="M2.66666 18.6667H5.33332" stroke="#406AEC" stroke-width="2" stroke-linecap="round" stroke-linejoin="round"/>
</svg>
