<svg width="32" height="32" viewBox="0 0 32 32" fill="none" xmlns="http://www.w3.org/2000/svg">
<path d="M4.22639 9.91986L15.9997 16.7332L27.693 9.95982" stroke="#25AE79" stroke-width="2" stroke-linecap="round" stroke-linejoin="round"/>
<path d="M15.9998 28.8133V16.72" stroke="#25AE79" stroke-width="2" stroke-linecap="round" stroke-linejoin="round"/>
<path d="M13.2401 3.30669L6.12015 7.26673C4.50682 8.16006 3.18684 10.4 3.18684 12.24V19.7734C3.18684 21.6134 4.50682 23.8534 6.12015 24.7467L13.2401 28.7068C14.7601 29.5468 17.2535 29.5468 18.7735 28.7068L25.8935 24.7467C27.5068 23.8534 28.8268 21.6134 28.8268 19.7734V12.24C28.8268 10.4 27.5068 8.16006 25.8935 7.26673L18.7735 3.30669C17.2401 2.45335 14.7601 2.45335 13.2401 3.30669Z" stroke="#25AE79" stroke-width="2" stroke-linecap="round" stroke-linejoin="round"/>
<path d="M22.6663 17.6535V12.7735L10.013 5.4668" stroke="#25AE79" stroke-width="2" stroke-linecap="round" stroke-linejoin="round"/>
</svg>
