<svg width="32" height="32" viewBox="0 0 32 32" fill="none" xmlns="http://www.w3.org/2000/svg">
<path d="M4.22632 9.9198L15.9996 16.7331L27.693 9.95976" stroke="#406AEC" stroke-width="2" stroke-linecap="round" stroke-linejoin="round"/>
<path d="M15.9998 28.8133V16.72" stroke="#406AEC" stroke-width="2" stroke-linecap="round" stroke-linejoin="round"/>
<path d="M13.2401 3.30663L6.12008 7.26667C4.50674 8.16 3.18677 10.4 3.18677 12.24V19.7733C3.18677 21.6133 4.50674 23.8533 6.12008 24.7466L13.2401 28.7067C14.7601 29.5467 17.2534 29.5467 18.7734 28.7067L25.8934 24.7466C27.5068 23.8533 28.8267 21.6133 28.8267 19.7733V12.24C28.8267 10.4 27.5068 8.16 25.8934 7.26667L18.7734 3.30663C17.2401 2.45329 14.7601 2.45329 13.2401 3.30663Z" stroke="#406AEC" stroke-width="2" stroke-linecap="round" stroke-linejoin="round"/>
<path d="M22.6663 17.6535V12.7735L10.0129 5.4668" stroke="#406AEC" stroke-width="2" stroke-linecap="round" stroke-linejoin="round"/>
</svg>
