<svg width="30" height="30" viewBox="0 0 30 30" fill="none" xmlns="http://www.w3.org/2000/svg">
<path opacity="0.4" d="M21.25 18.75H25C26.375 18.75 27.5 19.875 27.5 21.25V25C27.5 26.375 26.375 27.5 25 27.5H21.25C19.875 27.5 18.75 26.375 18.75 25V21.25C18.75 19.875 19.875 18.75 21.25 18.75Z" fill="#406AEC"/>
<path d="M14.9999 24.6875H11.6499C10.1999 24.6875 8.93743 23.8125 8.43743 22.4625C7.92493 21.1125 8.29993 19.625 9.38743 18.6625L19.3749 9.925C19.9749 9.4 19.9874 8.6875 19.8124 8.2C19.6249 7.7125 19.1499 7.1875 18.3499 7.1875H14.9999C14.4874 7.1875 14.0624 6.7625 14.0624 6.25C14.0624 5.7375 14.4874 5.3125 14.9999 5.3125H18.3499C19.7999 5.3125 21.0624 6.1875 21.5624 7.5375C22.0749 8.8875 21.6999 10.375 20.6124 11.3375L10.6249 20.075C10.0249 20.6 10.0124 21.3125 10.1874 21.8C10.3749 22.2875 10.8499 22.8125 11.6499 22.8125H14.9999C15.5124 22.8125 15.9374 23.2375 15.9374 23.75C15.9374 24.2625 15.5124 24.6875 14.9999 24.6875Z" fill="#406AEC"/>
<path d="M23.1372 24.375C22.4497 24.375 21.8872 23.8125 21.8872 23.125C21.8872 22.4375 22.4372 21.875 23.1372 21.875H23.1497C23.8372 21.875 24.3997 22.4375 24.3997 23.125C24.3997 23.8125 23.8372 24.375 23.1372 24.375Z" fill="#406AEC"/>
</svg>
