<svg width="20" height="21" viewBox="0 0 20 21" fill="none" xmlns="http://www.w3.org/2000/svg">
<path d="M18.0249 12.7917C18.0249 13.5334 17.8166 14.2334 17.4499 14.8334C16.7666 15.9834 15.5083 16.75 14.0666 16.75C12.6249 16.75 11.3666 15.9751 10.6833 14.8334C10.3166 14.2417 10.1083 13.5334 10.1083 12.7917C10.1083 10.6084 11.8833 8.83337 14.0666 8.83337C16.2499 8.83337 18.0249 10.6084 18.0249 12.7917Z" stroke="#406AEC" stroke-width="1.5" stroke-miterlimit="10" stroke-linecap="round" stroke-linejoin="round"/>
<path d="M15.55 12.775H12.5917" stroke="#406AEC" stroke-width="1.5" stroke-miterlimit="10" stroke-linecap="round" stroke-linejoin="round"/>
<path d="M14.0667 11.3334V14.2917" stroke="#406AEC" stroke-width="1.5" stroke-miterlimit="10" stroke-linecap="round" stroke-linejoin="round"/>
<path d="M17.2416 3.84998V5.69995C17.2416 6.37495 16.8166 7.21663 16.4 7.64163L14.9333 8.93329C14.6583 8.86662 14.3666 8.83329 14.0666 8.83329C11.8833 8.83329 10.1083 10.6083 10.1083 12.7916C10.1083 13.5333 10.3166 14.2333 10.6833 14.8333C10.9916 15.35 11.4166 15.7916 11.9333 16.1083V16.3916C11.9333 16.9 11.6 17.5749 11.175 17.8249L9.99997 18.5833C8.9083 19.2583 7.39163 18.4999 7.39163 17.1499V12.6916C7.39163 12.1 7.04997 11.3416 6.71663 10.925L3.51663 7.55827C3.09997 7.13327 2.7583 6.37497 2.7583 5.87497V3.93329C2.7583 2.92496 3.51663 2.16663 4.44163 2.16663H15.5583C16.4833 2.16663 17.2416 2.92498 17.2416 3.84998Z" stroke="#406AEC" stroke-width="1.5" stroke-miterlimit="10" stroke-linecap="round" stroke-linejoin="round"/>
</svg>
