<svg width="20" height="21" viewBox="0 0 20 21" fill="none" xmlns="http://www.w3.org/2000/svg">
<path d="M10 16.75C13.4518 16.75 16.25 13.9518 16.25 10.5C16.25 7.04822 13.4518 4.25 10 4.25C6.54822 4.25 3.75 7.04822 3.75 10.5C3.75 13.9518 6.54822 16.75 10 16.75Z" stroke="#406AEC" stroke-width="1.5" stroke-linecap="round" stroke-linejoin="round"/>
<path d="M10 13C11.3807 13 12.5 11.8807 12.5 10.5C12.5 9.11929 11.3807 8 10 8C8.61929 8 7.5 9.11929 7.5 10.5C7.5 11.8807 8.61929 13 10 13Z" stroke="#406AEC" stroke-width="1.5" stroke-linecap="round" stroke-linejoin="round"/>
<path d="M10 3.83329V2.16663" stroke="#406AEC" stroke-width="1.5" stroke-linecap="round" stroke-linejoin="round"/>
<path d="M3.33341 10.5H1.66675" stroke="#406AEC" stroke-width="1.5" stroke-linecap="round" stroke-linejoin="round"/>
<path d="M10 17.1666V18.8333" stroke="#406AEC" stroke-width="1.5" stroke-linecap="round" stroke-linejoin="round"/>
<path d="M16.6667 10.5H18.3334" stroke="#406AEC" stroke-width="1.5" stroke-linecap="round" stroke-linejoin="round"/>
</svg>
