<svg width="30" height="30" viewBox="0 0 30 30" fill="none" xmlns="http://www.w3.org/2000/svg">
<path opacity="0.4" d="M15 25C20.5228 25 25 20.5228 25 15C25 9.47715 20.5228 5 15 5C9.47715 5 5 9.47715 5 15C5 20.5228 9.47715 25 15 25Z" fill="#406AEC"/>
<path d="M14.9999 18.9C17.1538 18.9 18.8999 17.1539 18.8999 15C18.8999 12.8461 17.1538 11.1 14.9999 11.1C12.8459 11.1 11.0999 12.8461 11.0999 15C11.0999 17.1539 12.8459 18.9 14.9999 18.9Z" fill="#406AEC"/>
<path d="M15.9375 2.5V5.05H15.925C15.625 5.0125 15.3125 5 15 5C14.6875 5 14.375 5.0125 14.075 5.05H14.0625V2.5C14.0625 1.9875 14.4875 1.5625 15 1.5625C15.5125 1.5625 15.9375 1.9875 15.9375 2.5Z" fill="#406AEC"/>
<path d="M5 15C5 15.3125 5.0125 15.6375 5.05 15.9375H2.5C1.9875 15.9375 1.5625 15.5125 1.5625 15C1.5625 14.4875 1.9875 14.0625 2.5 14.0625H5.05C5.0125 14.3625 5 14.6875 5 15Z" fill="#406AEC"/>
<path d="M15.9375 24.95V27.5C15.9375 28.0125 15.5125 28.4375 15 28.4375C14.4875 28.4375 14.0625 28.0125 14.0625 27.5V24.95H14.075C14.375 24.9875 14.6875 25 15 25C15.3125 25 15.625 24.9875 15.925 24.95H15.9375Z" fill="#406AEC"/>
<path d="M28.4375 15C28.4375 15.5125 28.0125 15.9375 27.5 15.9375H24.95C24.9875 15.6375 25 15.3125 25 15C25 14.6875 24.9875 14.3625 24.95 14.0625H27.5C28.0125 14.0625 28.4375 14.4875 28.4375 15Z" fill="#406AEC"/>
</svg>
