<svg width="32" height="32" viewBox="0 0 32 32" fill="none" xmlns="http://www.w3.org/2000/svg">
<path d="M15.9998 18.6666H17.3331C18.7998 18.6666 19.9998 17.4666 19.9998 16V2.66663H7.99976C5.99976 2.66663 4.2531 3.77328 3.34644 5.39994" stroke="#25AE79" stroke-width="2" stroke-linecap="round" stroke-linejoin="round"/>
<path d="M2.66675 22.6666C2.66675 24.88 4.45341 26.6666 6.66675 26.6666H8.00008C8.00008 25.2 9.20008 24 10.6667 24C12.1334 24 13.3334 25.2 13.3334 26.6666H18.6667C18.6667 25.2 19.8667 24 21.3334 24C22.8001 24 24.0001 25.2 24.0001 26.6666H25.3334C27.5467 26.6666 29.3334 24.88 29.3334 22.6666V18.6666H25.3334C24.6001 18.6666 24.0001 18.0666 24.0001 17.3333V13.3333C24.0001 12.6 24.6001 12 25.3334 12H27.0534L24.7734 8.01331C24.2934 7.18664 23.4134 6.66663 22.4534 6.66663H20.0001V16C20.0001 17.4666 18.8001 18.6666 17.3334 18.6666H16.0001" stroke="#25AE79" stroke-width="2" stroke-linecap="round" stroke-linejoin="round"/>
<path d="M10.6667 29.3333C12.1394 29.3333 13.3333 28.1394 13.3333 26.6667C13.3333 25.1939 12.1394 24 10.6667 24C9.19391 24 8 25.1939 8 26.6667C8 28.1394 9.19391 29.3333 10.6667 29.3333Z" stroke="#25AE79" stroke-width="2" stroke-linecap="round" stroke-linejoin="round"/>
<path d="M21.3334 29.3333C22.8062 29.3333 24.0001 28.1394 24.0001 26.6667C24.0001 25.1939 22.8062 24 21.3334 24C19.8607 24 18.6667 25.1939 18.6667 26.6667C18.6667 28.1394 19.8607 29.3333 21.3334 29.3333Z" stroke="#25AE79" stroke-width="2" stroke-linecap="round" stroke-linejoin="round"/>
<path d="M29.3333 16V18.6667H25.3333C24.6 18.6667 24 18.0667 24 17.3333V13.3333C24 12.6 24.6 12 25.3333 12H27.0533L29.3333 16Z" stroke="#25AE79" stroke-width="2" stroke-linecap="round" stroke-linejoin="round"/>
<path d="M2.66675 10.6666H10.6667" stroke="#25AE79" stroke-width="2" stroke-linecap="round" stroke-linejoin="round"/>
<path d="M2.66675 14.6666H8.00008" stroke="#25AE79" stroke-width="2" stroke-linecap="round" stroke-linejoin="round"/>
<path d="M2.66675 18.6666H5.33341" stroke="#25AE79" stroke-width="2" stroke-linecap="round" stroke-linejoin="round"/>
</svg>
