<svg width="18" height="20" viewBox="0 0 18 20" fill="none" xmlns="http://www.w3.org/2000/svg">
<path d="M7.5 15.5417C7.5 16.4125 8.175 17.125 9 17.125C9.825 17.125 10.5 16.4125 10.5 15.5417C10.5 14.6708 9.825 13.9583 9 13.9583C8.175 13.9583 7.5 14.6708 7.5 15.5417Z" stroke="#406AEC" stroke-width="1.5"/>
<path d="M7.5 4.45829C7.5 5.32913 8.175 6.04163 9 6.04163C9.825 6.04163 10.5 5.32913 10.5 4.45829C10.5 3.58746 9.825 2.87496 9 2.87496C8.175 2.87496 7.5 3.58746 7.5 4.45829Z" stroke="#406AEC" stroke-width="1.5"/>
<path d="M7.5 10C7.5 10.8709 8.175 11.5834 9 11.5834C9.825 11.5834 10.5 10.8709 10.5 10C10.5 9.12921 9.825 8.41671 9 8.41671C8.175 8.41671 7.5 9.12921 7.5 10Z" stroke="#406AEC" stroke-width="1.5"/>
</svg>
