<svg width="20" height="20" viewBox="0 0 20 20" fill="none" xmlns="http://www.w3.org/2000/svg">
<path d="M9.99973 11.5834H10.7914C11.6622 11.5834 12.3747 10.8709 12.3747 10V2.08337H5.24973C4.06223 2.08337 3.02515 2.74045 2.48682 3.70628" stroke="#FFA51F" stroke-width="1.5" stroke-linecap="round" stroke-linejoin="round"/>
<path d="M2.08325 13.9584C2.08325 15.2725 3.14409 16.3334 4.45825 16.3334H5.24992C5.24992 15.4625 5.96242 14.75 6.83325 14.75C7.70409 14.75 8.41658 15.4625 8.41658 16.3334H11.5833C11.5833 15.4625 12.2958 14.75 13.1666 14.75C14.0374 14.75 14.7499 15.4625 14.7499 16.3334H15.5416C16.8558 16.3334 17.9166 15.2725 17.9166 13.9584V11.5834H15.5416C15.1062 11.5834 14.7499 11.2271 14.7499 10.7917V8.41671C14.7499 7.98129 15.1062 7.62504 15.5416 7.62504H16.5628L15.2091 5.25797C14.9241 4.76713 14.4016 4.45837 13.8316 4.45837H12.3749V10C12.3749 10.8709 11.6624 11.5834 10.7916 11.5834H9.99992" stroke="#FFA51F" stroke-width="1.5" stroke-linecap="round" stroke-linejoin="round"/>
<path d="M6.83333 17.9167C7.70778 17.9167 8.41667 17.2078 8.41667 16.3333C8.41667 15.4589 7.70778 14.75 6.83333 14.75C5.95888 14.75 5.25 15.4589 5.25 16.3333C5.25 17.2078 5.95888 17.9167 6.83333 17.9167Z" stroke="#FFA51F" stroke-width="1.5" stroke-linecap="round" stroke-linejoin="round"/>
<path d="M13.1666 17.9167C14.041 17.9167 14.7499 17.2078 14.7499 16.3333C14.7499 15.4589 14.041 14.75 13.1666 14.75C12.2921 14.75 11.5833 15.4589 11.5833 16.3333C11.5833 17.2078 12.2921 17.9167 13.1666 17.9167Z" stroke="#FFA51F" stroke-width="1.5" stroke-linecap="round" stroke-linejoin="round"/>
<path d="M17.9167 10V11.5833H15.5417C15.1062 11.5833 14.75 11.2271 14.75 10.7917V8.41667C14.75 7.98125 15.1062 7.625 15.5417 7.625H16.5629L17.9167 10Z" stroke="#FFA51F" stroke-width="1.5" stroke-linecap="round" stroke-linejoin="round"/>
<path d="M2.08325 6.83337H6.83325" stroke="#FFA51F" stroke-width="1.5" stroke-linecap="round" stroke-linejoin="round"/>
<path d="M2.08325 9.20837H5.24992" stroke="#FFA51F" stroke-width="1.5" stroke-linecap="round" stroke-linejoin="round"/>
<path d="M2.08325 11.5834H3.66659" stroke="#FFA51F" stroke-width="1.5" stroke-linecap="round" stroke-linejoin="round"/>
</svg>
