<svg width="30" height="31" viewBox="0 0 30 31" fill="none" xmlns="http://www.w3.org/2000/svg">
<path opacity="0.4" d="M11.1 6.2499C10.1 1.9249 3.58753 1.9124 2.58753 6.2499C2.00003 8.7874 3.61253 10.9374 5.01253 12.2749C6.03753 13.2374 7.65003 13.2374 8.67503 12.2749C10.075 10.9374 11.675 8.7874 11.1 6.2499ZM6.88753 8.2499C6.20003 8.2499 5.63753 7.6874 5.63753 6.9999C5.63753 6.3124 6.18753 5.7499 6.87503 5.7499H6.88753C7.58753 5.7499 8.13753 6.3124 8.13753 6.9999C8.13753 7.6874 7.58753 8.2499 6.88753 8.2499Z" fill="#406AEC"/>
<path d="M8.13721 7C8.13721 7.6875 7.58721 8.25 6.88721 8.25C6.19971 8.25 5.63721 7.6875 5.63721 7C5.63721 6.3125 6.18721 5.75 6.87471 5.75H6.88721C7.58721 5.75 8.13721 6.3125 8.13721 7Z" fill="#406AEC"/>
<path d="M14.9999 25.1875H11.6499C10.1999 25.1875 8.93743 24.3125 8.43743 22.9625C7.92493 21.6125 8.29993 20.125 9.38743 19.1625L19.3749 10.425C19.9749 9.9 19.9874 9.1875 19.8124 8.7C19.6249 8.2125 19.1499 7.6875 18.3499 7.6875H14.9999C14.4874 7.6875 14.0624 7.2625 14.0624 6.75C14.0624 6.2375 14.4874 5.8125 14.9999 5.8125H18.3499C19.7999 5.8125 21.0624 6.6875 21.5624 8.0375C22.0749 9.3875 21.6999 10.875 20.6124 11.8375L10.6249 20.575C10.0249 21.1 10.0124 21.8125 10.1874 22.3C10.3749 22.7875 10.8499 23.3125 11.6499 23.3125H14.9999C15.5124 23.3125 15.9374 23.7375 15.9374 24.25C15.9374 24.7625 15.5124 25.1875 14.9999 25.1875Z" fill="#406AEC"/>
</svg>
