<svg width="18" height="18" viewBox="0 0 18 18" fill="none" xmlns="http://www.w3.org/2000/svg">
<path d="M1.55248 3.45C2.15248 0.855004 6.05998 0.855004 6.65248 3.45C7.00498 4.9725 6.03748 6.2625 5.19748 7.065C4.58248 7.65 3.61498 7.6425 2.99998 7.065C2.16748 6.2625 1.19998 4.9725 1.55248 3.45Z" stroke="#24262E" stroke-width="1.5"/>
<path d="M11.3025 12.45C11.9025 9.855 15.8325 9.855 16.4325 12.45C16.785 13.9725 15.8175 15.2625 14.97 16.065C14.355 16.65 13.38 16.6425 12.765 16.065C11.9175 15.2625 10.95 13.9725 11.3025 12.45Z" stroke="#24262E" stroke-width="1.5"/>
<path d="M9.00002 3.75H11.01C12.3975 3.75 13.0425 5.4675 12 6.3825L6.00752 11.625C4.96502 12.5325 5.61002 14.25 6.99002 14.25H9.00002" stroke="#24262E" stroke-width="1.5" stroke-linecap="round" stroke-linejoin="round"/>
<path d="M4.11466 4.125H4.12333" stroke="#24262E" stroke-width="2" stroke-linecap="round" stroke-linejoin="round"/>
<path d="M13.8647 13.125H13.8733" stroke="#24262E" stroke-width="2" stroke-linecap="round" stroke-linejoin="round"/>
</svg>
