<svg width="30" height="31" viewBox="0 0 30 31" fill="none" xmlns="http://www.w3.org/2000/svg">
<path d="M25 24.575H13.6625C13.1 24.575 12.6375 24.1125 12.6375 23.55C12.6375 22.9875 13.1 22.525 13.6625 22.525H25C25.5625 22.525 26.025 22.9875 26.025 23.55C26.025 24.125 25.5625 24.575 25 24.575Z" fill="#406AEC"/>
<path d="M25 16.7125H13.6625C13.1 16.7125 12.6375 16.25 12.6375 15.6875C12.6375 15.125 13.1 14.6625 13.6625 14.6625H25C25.5625 14.6625 26.025 15.125 26.025 15.6875C26.025 16.25 25.5625 16.7125 25 16.7125Z" fill="#406AEC"/>
<path d="M25 8.83748H13.6625C13.1 8.83748 12.6375 8.37498 12.6375 7.81248C12.6375 7.24998 13.1 6.78748 13.6625 6.78748H25C25.5625 6.78748 26.025 7.24998 26.025 7.81248C26.025 8.37498 25.5625 8.83748 25 8.83748Z" fill="#406AEC"/>
<path opacity="0.4" d="M6.13748 10.5375C5.86248 10.5375 5.59998 10.425 5.41248 10.2375L4.27498 9.10002C3.87498 8.70002 3.87498 8.05002 4.27498 7.65002C4.67498 7.25002 5.32498 7.25002 5.72498 7.65002L6.13748 8.06252L8.81248 5.38752C9.21248 4.98752 9.86248 4.98752 10.2625 5.38752C10.6625 5.78752 10.6625 6.43752 10.2625 6.83752L6.86248 10.2375C6.66248 10.425 6.41248 10.5375 6.13748 10.5375Z" fill="#406AEC"/>
<path opacity="0.4" d="M6.13748 18.4125C5.87498 18.4125 5.61248 18.3125 5.41248 18.1125L4.27498 16.975C3.87498 16.575 3.87498 15.925 4.27498 15.525C4.67498 15.125 5.32498 15.125 5.72498 15.525L6.13748 15.9375L8.81248 13.2625C9.21248 12.8625 9.86248 12.8625 10.2625 13.2625C10.6625 13.6625 10.6625 14.3125 10.2625 14.7125L6.86248 18.1125C6.66248 18.3125 6.39998 18.4125 6.13748 18.4125Z" fill="#406AEC"/>
<path opacity="0.4" d="M6.13748 25.9125C5.87498 25.9125 5.61248 25.8125 5.41248 25.6125L4.27498 24.475C3.87498 24.075 3.87498 23.425 4.27498 23.025C4.67498 22.625 5.32498 22.625 5.72498 23.025L6.13748 23.4375L8.81248 20.7625C9.21248 20.3625 9.86248 20.3625 10.2625 20.7625C10.6625 21.1625 10.6625 21.8125 10.2625 22.2125L6.86248 25.6125C6.66248 25.8125 6.39998 25.9125 6.13748 25.9125Z" fill="#406AEC"/>
</svg>
