<svg width="30" height="30" viewBox="0 0 30 30" fill="none" xmlns="http://www.w3.org/2000/svg">
<path opacity="0.4" d="M26.3502 10.725V19.275C26.3502 20.675 25.6002 21.9751 24.3877 22.6876L16.9627 26.975C15.7502 27.675 14.2502 27.675 13.0252 26.975L5.6002 22.6876C4.3877 21.9876 3.6377 20.6875 3.6377 19.275V10.725C3.6377 9.32504 4.3877 8.02499 5.6002 7.31249L13.0252 3.025C14.2377 2.325 15.7377 2.325 16.9627 3.025L24.3877 7.31249C25.6002 8.02499 26.3502 9.31254 26.3502 10.725Z" fill="#406AEC"/>
<path d="M14.9994 15C16.6079 15 17.9119 13.696 17.9119 12.0875C17.9119 10.479 16.6079 9.17505 14.9994 9.17505C13.3909 9.17505 12.0869 10.479 12.0869 12.0875C12.0869 13.696 13.3909 15 14.9994 15Z" fill="#406AEC"/>
<path d="M18.35 20.825C19.3625 20.825 19.95 19.7001 19.3875 18.8626C18.5375 17.6001 16.8875 16.7501 15 16.7501C13.1125 16.7501 11.4625 17.6001 10.6125 18.8626C10.05 19.7001 10.6375 20.825 11.65 20.825H18.35Z" fill="#406AEC"/>
</svg>
